PathFileType	4	(X/Y/Z)	Kaydara																																																																																																																									
DataRate	CameraRate	NumFrames	NumMarkers	Units	OrigDataRate	OrigDataStartFrame	OrigNumFrames																																																																																																																					
30	30	4	41	mm	30	53	300																																																																																																																					
Frame#	Time	PAIB_LFHD			PAIB_RFHD			PAIB_LBHD			PAIB_RBHD			PAIB_LFTShould			PAIB_RFTShould			PAIB_LRRShould			PAIB_RRRShould			PAIB_T10			PAIB_STRN			PAIB_TRUN			PAIB_LSHO			PAIB_LUPA			PAIB_LELB			PAIB_LFRM			PAIB_LWRA			PAIB_LWRB			PAIB_LFIN			PAIB_RSHO			PAIB_RUPA			PAIB_RELB			PAIB_RFRM			PAIB_RWRA			PAIB_RWRB			PAIB_RFIN			PAIB_LFWT			PAIB_RFWT			PAIB_LBWT			PAIB_RBWT			PAIB_LTHI			PAIB_LKNE			PAIB_LSHN			PAIB_LANK			PAIB_LHEE			PAIB_LTOE			PAIB_RTHI			PAIB_RKNE			PAIB_RSHN			PAIB_RANK			PAIB_RHEE			PAIB_RTOE		
		X1	Y1	Z1	X2	Y2	Z2	X3	Y3	Z3	X4	Y4	Z4	X5	Y5	Z5	X6	Y6	Z6	X7	Y7	Z7	X8	Y8	Z8	X9	Y9	Z9	X10	Y10	Z10	X11	Y11	Z11	X12	Y12	Z12	X13	Y13	Z13	X14	Y14	Z14	X15	Y15	Z15	X16	Y16	Z16	X17	Y17	Z17	X18	Y18	Z18	X19	Y19	Z19	X20	Y20	Z20	X21	Y21	Z21	X22	Y22	Z22	X23	Y23	Z23	X24	Y24	Z24	X25	Y25	Z25	X26	Y26	Z26	X27	Y27	Z27	X28	Y28	Z28	X29	Y29	Z29	X30	Y30	Z30	X31	Y31	Z31	X32	Y32	Z32	X33	Y33	Z33	X34	Y34	Z34	X35	Y35	Z35	X36	Y36	Z36	X37	Y37	Z37	X38	Y38	Z38	X39	Y39	Z39	X40	Y40	Z40	X41	Y41	Z41
																																																																																																																												
38	1.733	259.7077	1642.27493	-1864.70444	76.81378	1647.82608	-1878.61328	278.54918	1665.65826	-1992.43576	75.20955	1678.26813	-1990.90179	235.52418	1416.25366	-1961.25717	113.21013	1413.94836	-1960.30365	244.91449	1493.423	-2096.19431	90.61174	1492.89093	-2084.62463	162.48497	1344.99313	-2188.85529	181.5106	1347.00943	-1929.93668	178.96557	1244.07959	-1917.18307	362.63027	1432.14462	-2031.97433	405.97588	1202.09541	-2026.30234	423.33244	1114.34418	-2061.71143	430.38036	1001.90857	-2011.44653	355.69309	896.89827	-1928.47244	401.85661	872.53319	-1986.66977	404.2754	840.40276	-1921.76331	-14.03953	1422.21268	-2005.52658	-76.73928	1247.34756	-2036.38367	-94.8755	1127.78351	-2042.23267	-95.7013	991.46935	-2003.36044	-9.58218	894.98833	-1920.19196	-85.33993	875.6868	-1950.50995	-60.30923	844.11903	-1887.06772	276.59258	973.26317	-1953.58124	39.81557	977.33902	-1951.81381	214.21829	1027.14989	-2168.07663	69.32066	1031.3932	-2163.48938	259.45742	747.42226	-2164.26758	299.72675	500.01965	-2071.37177	271.89413	311.77629	-2067.2963	272.65366	127.75492	-2156.5184	217.92959	118.91052	-2204.33487	258.46691	75.20546	-1982.48459	9.77775	731.06316	-2158.2132	-3.18566	489.36901	-2079.83902	49.07407	304.39566	-2066.39893	19.02748	104.9336	-2155.77209	83.92368	111.24872	-2201.29425	27.83134	77.26242	-1978.62045
39	1.767	261.07296	1642.04453	-1862.1875	78.07523	1647.59949	-1876.68442	280.26239	1665.30884	-1989.94888	76.94084	1677.892	-1988.85712	237.20978	1415.85785	-1959.16626	114.90078	1413.57986	-1958.52493	246.96945	1493.29941	-2093.76663	92.59953	1492.89948	-2082.60284	164.60318	1345.20477	-2187.05154	183.00737	1346.72211	-1928.23303	180.34531	1243.60909	-1915.60043	364.40933	1431.75247	-2029.31793	407.59315	1201.71852	-2024.16794	424.91264	1113.98514	-2059.7731	431.53938	1001.32378	-2009.90463	356.32687	895.90355	-1927.81693	402.79045	871.87225	-1985.7428	404.8447	839.50996	-1921.08414	-12.29912	1422.16675	-2003.88489	-75.10204	1247.40707	-2035.17563	-93.28079	1127.83539	-2041.45676	-94.30551	991.45813	-2002.94525	-8.58673	894.59541	-1919.89471	-84.20038	875.57915	-1950.36331	-59.29848	843.78372	-1887.07809	277.77288	972.86186	-1952.59491	41.12433	977.34322	-1951.12122	216.03346	1027.14149	-2167.03796	71.06792	1031.53778	-2162.85278	260.77909	747.17575	-2163.32352	300.36629	499.70909	-2070.63553	271.99469	311.51976	-2066.88934	272.70464	127.60939	-2156.2236	218.0937	119.0642	-2204.47021	258.29813	75.20941	-1982.44583	11.26673	731.04477	-2157.76184	-2.44127	489.31561	-2079.2012	49.3377	304.21303	-2065.92865	19.00415	104.93853	-2155.67276	84.00258	111.24351	-2201.22864	27.7867	77.31606	-1978.66928
40	1.8	262.84891	1641.57303	-1859.42474	79.95402	1647.17072	-1874.10965	282.2049	1664.95956	-1987.10602	78.8997	1677.59628	-1986.3858	238.86017	1415.37384	-1956.59286	116.37478	1413.30582	-1956.43646	249.05437	1493.2373	-2091.11252	94.75584	1492.96112	-2080.37964	166.96775	1345.45654	-2184.99481	184.08215	1346.34979	-1926.315	182.00111	1243.26576	-1913.8208	366.47881	1431.39008	-2026.45035	410.1342	1202.31651	-2023.55072	426.57063	1113.56956	-2057.56912	432.96467	1000.82748	-2008.22006	357.25979	895.10178	-1926.70105	404.06708	871.2532	-1984.62372	405.77816	838.59993	-1920.07126	-10.41317	1422.08191	-2002.10388	-73.39017	1247.44614	-2034.12033	-91.59413	1127.96059	-2040.70923	-92.76246	991.42334	-2002.54227	-7.09646	894.41483	-1919.44855	-82.76271	875.46005	-1950.2002	-58.01449	843.48389	-1887.01904	279.19506	972.3494	-1951.15005	42.58561	977.10693	-1950.59143	218.35295	1026.98166	-2165.41138	73.2427	1031.70181	-2162.07687	262.37595	747.14722	-2162.36664	301.36801	499.52709	-2070.16434	272.47005	311.27487	-2066.56158	272.82745	127.40378	-2156.2764	218.32508	119.04578	-2204.48166	258.22351	75.19863	-1982.4649	12.65081	730.9877	-2157.13837	-1.58296	489.3325	-2078.29987	49.9634	303.85981	-2065.27313	19.14349	104.98016	-2155.46661	84.15453	111.37687	-2201.07986	27.77033	77.30354	-1978.65509
41	1.833	264.91396	1641.15585	-1856.40106	82.05194	1646.73065	-1871.25443	284.37447	1664.53552	-1984.01184	81.0388	1677.25098	-1983.53195	240.81133	1415.00946	-1953.73581	118.53551	1413.04459	-1954.38919	251.51052	1493.21167	-2088.10654	97.06791	1492.948	-2077.91824	169.59822	1345.64484	-2182.69272	186.395	1345.80566	-1923.61847	183.56392	1242.82921	-1911.56219	368.65154	1431.01501	-2023.19199	411.01143	1200.69145	-2018.98483	428.49941	1113.28842	-2055.22034	434.68323	1000.29671	-2006.17523	358.73299	894.40933	-1925.32379	405.51689	870.67101	-1983.17688	407.16534	837.84294	-1918.8327	-8.34202	1421.98105	-2000.09003	-71.42526	1247.58987	-2032.87811	-89.76965	1128.04588	-2039.90967	-91.09768	991.46416	-2002.07458	-5.74222	894.26064	-1918.86963	-81.27279	875.28542	-1949.97559	-56.69462	843.14934	-1886.74652	280.84141	971.97594	-1949.42474	44.16809	976.97357	-1949.59518	220.74533	1026.96228	-2163.84567	75.61836	1031.75575	-2160.96436	264.29466	747.26929	-2161.18149	302.32899	499.28421	-2069.49356	273.01439	311.02423	-2066.32324	273.09229	127.27191	-2156.14441	218.58543	119.1183	-2204.50058	258.17215	75.22436	-1982.5119	14.31924	731.00151	-2156.24756	-0.37157	489.33266	-2077.29675	50.71445	303.80981	-2064.72504	19.28406	105.13474	-2155.35645	84.40282	111.49628	-2200.93628	27.78183	77.29713	-1978.62228
